<svg xmlns="http://www.w3.org/2000/svg" width="31.983" height="28.547" viewBox="0 0 31.983 28.547"><g transform="translate(0 1)"><g transform="translate(0)"><g transform="translate(0 2.34)"><path d="M49.1,116a1.541,1.541,0,1,1-1.541,1.541A1.541,1.541,0,0,1,49.1,116m0-1a2.53,2.53,0,1,0,1.8.741A2.532,2.532,0,0,0,49.1,115Z" transform="translate(-38.424 -94.864)" fill="#f2aa4c"/><path d="M114.252,116a1.541,1.541,0,1,1-1.541,1.541A1.541,1.541,0,0,1,114.252,116m0-.991a1.049,1.049,0,1,0,0-.007Z" transform="translate(-92.158 -94.864)" fill="#f2aa4c"/><path d="M25.289,2.751H9.84a.65.65,0,0,0-.7.573.643.643,0,0,0,.7.571H25.289a1.839,1.839,0,0,1,1.36.538,1.606,1.606,0,0,1,.39,1.441l-1.311,6.815a2.035,2.035,0,0,1-2.036,1.371H10.669a2.037,2.037,0,0,1-2.036-1.371L8.3,10.947,7.323,5.881,6.7,3.285a.375.375,0,0,1-.011-.061C6.573,2.026,5.179,0,.7,0A.645.645,0,0,0,0,.573a.643.643,0,0,0,.7.571c4.074,0,4.553,1.8,4.614,2.164a.525.525,0,0,1,0,.074L5.953,6.05a.091.091,0,0,1,0,.019L6.9,11.008l1.345,7.179a.7.7,0,0,0,.683.578h14.6a.7.7,0,0,0,0-1.385H9.886a.439.439,0,0,1-.431-.35L9.182,15.6a.439.439,0,0,1,.431-.525.5.5,0,0,1,.1.012,3.952,3.952,0,0,0,.953.117H23.692A3.373,3.373,0,0,0,27.1,12.861l1.31-6.813a2.626,2.626,0,0,0-.665-2.318,3.327,3.327,0,0,0-2.453-.979Z" transform="translate(0)" fill="#f2aa4c"/></g><rect width="14" height="10" rx="5" transform="translate(17.983 1)" fill="#ececec"/><text transform="translate(22.983 9)" fill="#222831" font-size="9" font-family="SegoeUI, Segoe UI"><tspan x="0" y="0">0</tspan></text></g></g></svg>