<svg xmlns="http://www.w3.org/2000/svg" width="21" height="14.668" viewBox="0 0 21 14.668" fill="#969aa0"><g transform="translate(-1 -5.5)" opacity="0.49"><path d="M11.5,5.5a10.972,10.972,0,0,1,7.74,3.564,16.593,16.593,0,0,1,2.7,3.535.5.5,0,0,1,0,.47,16.593,16.593,0,0,1-2.7,3.535,10.972,10.972,0,0,1-7.74,3.564A10.972,10.972,0,0,1,3.76,16.6a16.593,16.593,0,0,1-2.7-3.535.5.5,0,0,1,0-.47,16.593,16.593,0,0,1,2.7-3.535A10.972,10.972,0,0,1,11.5,5.5Zm9.424,7.334A16.382,16.382,0,0,0,18.513,9.75,9.859,9.859,0,0,0,11.5,6.5,9.87,9.87,0,0,0,4.468,9.77a16.32,16.32,0,0,0-2.392,3.063,16.383,16.383,0,0,0,2.411,3.084,9.859,9.859,0,0,0,7.013,3.25,9.87,9.87,0,0,0,7.032-3.27A16.32,16.32,0,0,0,20.924,12.834Z" /><path d="M15.352,17.481A2.243,2.243,0,1,1,17.7,15.24,2.3,2.3,0,0,1,15.352,17.481Zm0-3.481A1.245,1.245,0,1,0,16.7,15.24,1.3,1.3,0,0,0,15.352,14Z" transform="translate(-3.852 -2.407)" /></g></svg>