<svg id="Layer_1" data-name="Layer 1" xmlns="http://www.w3.org/2000/svg" viewBox="0 0 19 25"><defs><style>.cls-1{fill:#f2aa4c;}</style></defs><title>filter_icon</title><path class="cls-1" d="M8.71,1.25a2.52,2.52,0,0,0-4.28,0H0V3.82H4.4a2.52,2.52,0,0,0,4.34,0H19V1.25ZM6.57,3.06a.5.5,0,1,1,0-1,.5.5,0,0,1,0,1Z"/><path class="cls-1" d="M5.71,21.19a2.52,2.52,0,0,0-4.28,0H0v2.57H1.4a2.52,2.52,0,0,0,4.34,0H19V21.19ZM3.57,23a.5.5,0,1,1,0-1,.5.5,0,1,1,0,1Z"/><path class="cls-1" d="M14.51,11.16a2.48,2.48,0,0,0-4.24,0H0v2.57H10.24a2.48,2.48,0,0,0,4.3,0H19V11.16ZM12.39,13a.5.5,0,0,1-.5-.5.5.5,0,1,1,1,0A.5.5,0,0,1,12.39,13Z"/></svg>