<svg xmlns="http://www.w3.org/2000/svg" width="20.435" height="19.313" viewBox="0 0 20.435 19.313"><g transform="translate(0.501)"><path d="M69.125,21.813H58.07a2.356,2.356,0,0,1-2.22-2.466v-3.41a.484.484,0,0,1,.967,0v3.41a1.394,1.394,0,0,0,1.252,1.5H69.125a1.394,1.394,0,0,0,1.252-1.5V4.967a1.4,1.4,0,0,0-1.252-1.5H58.07a1.4,1.4,0,0,0-1.252,1.5V8.42a.484.484,0,0,1-.967,0V4.967A2.356,2.356,0,0,1,58.07,2.5H69.125a2.354,2.354,0,0,1,2.217,2.467V19.347A2.354,2.354,0,0,1,69.125,21.813Z" transform="translate(-51.409 -2.5)" fill="#171a1d"/><path d="M11.932,45.242H3.278v-2.1c0-.428-.379-.666-.635-.394l-2.5,2.633a.616.616,0,0,0,0,.8l2.5,2.637c.255.268.635.031.635-.4v-2.1h8.654a.3.3,0,0,0,.252-.331v-.42A.3.3,0,0,0,11.932,45.242Z" transform="translate(0.003 -36.127)" fill="#171a1d"/><path d="M2.888,42.135a.945.945,0,0,1,.89,1.01v1.6h8.154a.785.785,0,0,1,.752.83v.42a.786.786,0,0,1-.752.831H3.778v1.6a.947.947,0,0,1-.892,1.012.832.832,0,0,1-.6-.269L-.239,46.5a1.112,1.112,0,0,1,0-1.442l.019-.021,2.5-2.633A.83.83,0,0,1,2.888,42.135Zm8.8,3.606H2.778V43.336L.519,45.714a.115.115,0,0,0,0,.136l2.259,2.382v-2.41h8.906Z" transform="translate(0.003 -36.127)" fill="#14181d"/></g></svg>