<svg xmlns="http://www.w3.org/2000/svg" xmlns:xlink="http://www.w3.org/1999/xlink" width="24.885" height="24.885" viewBox="0 0 24.885 24.885"><defs><clipPath id="a"><circle cx="11.924" cy="11.924" r="11.924" fill="none"/></clipPath></defs><g transform="translate(0.518 0.517)" clip-path="url(#a)"><path d="M48.327,114.812a1.742,1.742,0,0,1-.534-.087H35.373a1.736,1.736,0,0,1-1.518-.2,1.347,1.347,0,0,1-.463-1.475L34.8,102.966a.35.35,0,0,1,.01-.051,2.1,2.1,0,0,1,2.032-1.236h1.226a.555.555,0,0,1,.423.184,4.052,4.052,0,0,0,6.033,0,.555.555,0,0,1,.423-.184h1.226a2.1,2.1,0,0,1,2.032,1.236.351.351,0,0,1,.01.051l1.409,10.081a1.337,1.337,0,0,1-1.3,1.764ZM35.824,103.1l-1.406,10.079a.233.233,0,0,1-.01.051.6.6,0,0,0,.13.639.639.639,0,0,0,.559.01.648.648,0,0,1,.187-.029H47.9a.618.618,0,0,1,.218.04c.229.089.321.026.351,0a.627.627,0,0,0,.139-.665.233.233,0,0,1-.01-.051l-1.406-10.079a1.121,1.121,0,0,0-1.017-.546H45.2a5.235,5.235,0,0,1-7.394,0h-.968A1.121,1.121,0,0,0,35.824,103.1Z" transform="translate(-29.583 -89.067)" fill="#f2aa4c"/><path d="M69.877,43.854a4.275,4.275,0,1,1,3.945-4.263A4.118,4.118,0,0,1,69.877,43.854Zm0-7.552a3.315,3.315,0,1,0,2.908,3.29,3.121,3.121,0,0,0-2.908-3.29Z" transform="translate(-57.952 -31.317)" fill="#f2aa4c"/></g><path d="M12.823,25.265A12.443,12.443,0,1,1,25.265,12.823,12.443,12.443,0,0,1,12.823,25.265Zm0-23.848A11.406,11.406,0,1,0,24.228,12.823,11.406,11.406,0,0,0,12.823,1.417Z" transform="translate(-0.38 -0.38)" fill="#f2aa4c"/></svg>