<svg xmlns="http://www.w3.org/2000/svg" width="64.689" height="25" viewBox="0 0 64.689 25"><g transform="translate(1 1)"><g transform="translate(41.689 0.5)"><g fill="none" stroke="#f2aa4c" stroke-width="1.5"><rect width="10" height="10" rx="3" stroke="none"/><rect x="0.75" y="0.75" width="8.5" height="8.5" rx="2.25" fill="none"/></g><g transform="translate(0 12)" fill="none" stroke="#f2aa4c" stroke-width="1.5"><rect width="10" height="10" rx="3" stroke="none"/><rect x="0.75" y="0.75" width="8.5" height="8.5" rx="2.25" fill="none"/></g><g transform="translate(12 12)" fill="none" stroke="#f2aa4c" stroke-width="1.5"><rect width="10" height="10" rx="3" stroke="none"/><rect x="0.75" y="0.75" width="8.5" height="8.5" rx="2.25" fill="none"/></g><g transform="translate(12)" fill="none" stroke="#f2aa4c" stroke-width="1.5"><rect width="10" height="10" rx="3" stroke="none"/><rect x="0.75" y="0.75" width="8.5" height="8.5" rx="2.25" fill="none"/></g></g><g transform="translate(0 20)"><rect width="3.162" height="3" fill="none" stroke="#f2aa4c" stroke-width="2"/><rect width="16" height="2" transform="translate(3.5 0.5)" fill="#f2aa4c"/></g><g transform="translate(0 10)"><rect width="3.162" height="3" fill="none" stroke="#f2aa4c" stroke-width="2"/><rect width="16" height="2" transform="translate(3.5 0.5)" fill="#f2aa4c"/></g><rect width="3.162" height="3" fill="none" stroke="#f2aa4c" stroke-width="2"/><rect width="16" height="2" transform="translate(3.5 0.5)" fill="#f2aa4c"/></g></svg>