<svg xmlns="http://www.w3.org/2000/svg" width="105.753" height="24" viewBox="0 0 105.753 24"><path d="M-86.451-26.081a11.144,11.144,0,0,1-4.484-.972,5.691,5.691,0,0,1-2.83-2.386c-.637-1.076-.347-.719-.373-.729s4.93-4.114,4.93-4.114a8.231,8.231,0,0,0,.349,2.4,2.548,2.548,0,0,0,.882,1.314,2.337,2.337,0,0,0,1.378.4q1.029,0,1.341-.543a2.257,2.257,0,0,0,.312-1.143,3.49,3.49,0,0,0-.882-2.414,12.4,12.4,0,0,0-2.389-1.986L-90.788-38a12.609,12.609,0,0,1-2.848-2.529,5.344,5.344,0,0,1-1.158-3.5,5.141,5.141,0,0,1,2.242-4.5,10.537,10.537,0,0,1,6.1-1.557,9.8,9.8,0,0,1,3.841.629,5.277,5.277,0,0,1,2.205,1.643,4.036,4.036,0,0,1,.756,1.591c.081.373.093.431.093.419l-4.117,4.241a17.955,17.955,0,0,0-.944-3.159,3.218,3.218,0,0,0-.8-1.207,1.677,1.677,0,0,0-1.25-.414,1.527,1.527,0,0,0-1.341.6,2.074,2.074,0,0,0-.423,1.2,2.889,2.889,0,0,0,.79,2.1,13.845,13.845,0,0,0,2.076,1.7l2.462,1.686a14.731,14.731,0,0,1,3.289,2.914,6.127,6.127,0,0,1,1.341,4.029,4.947,4.947,0,0,1-.956,2.957,6.434,6.434,0,0,1-2.7,2.1A11.043,11.043,0,0,1-86.451-26.081Zm11.117-2.469V-49.767h4.349V-40.4h4.594v-9.371h6.615v23.143h-6.615V-38.616h-4.594v11.992Zm17.66,0,4.8-21.217h7.5l5.55,23.143h-6.064l-1.617-6.484h-3.161l-1.617,6.484Zm7.006-6.017h3.161l-1.429-13.957Zm12.747,6.017V-49.767h4.381l-.209,11.645,5.207-11.645h6.432L-27.624-39.31l5.77,12.686h-6.689l-4.509-10.114-.489.8v9.314Zm22.992-.6v-6.929l-5.66-13.686h6.211l2.726,13.686,2.639-13.686h5.954l-5.55,13.686v9.457Zm11.262,0v-1.871h5.66v4.4Zm8.967,0v-1.871h5.66v4.4Z" transform="translate(94.794 50.081)" fill="#f2aa4c"/></svg>