<svg id="Layer_1" data-name="Layer 1" xmlns="http://www.w3.org/2000/svg" viewBox="0 0 32 32"><title>at_icon</title><path d="M21.35,23A9.21,9.21,0,0,1,16.46,25a9.86,9.86,0,0,1-5.8-1.13A8.31,8.31,0,0,1,6.31,18a8.88,8.88,0,0,1,2.57-8.5A8.64,8.64,0,0,1,13.4,7.18a9.36,9.36,0,0,1,7.66,1.66.92.92,0,0,0,.6.2c.76,0,1.52,0,2.32,0v.34c0,3.5,0,7,0,10.49,0,.29.05.58.07.87s.1.24.27.25a3.2,3.2,0,0,0,2.62-1,5,5,0,0,0,1.47-3,11.1,11.1,0,0,0-1.33-7.16A12.1,12.1,0,0,0,22.4,5.29a12.86,12.86,0,0,0-4.62-1.57A12.1,12.1,0,0,0,7.56,6.84a12.23,12.23,0,0,0-3.75,6.33,11.82,11.82,0,0,0,1.47,9.27,12.1,12.1,0,0,0,8.24,5.73,12.45,12.45,0,0,0,8.68-1.41l.24-.12,1.77,2.93a15,15,0,0,1-2.92,1.37,16,16,0,0,1-6.4.88A15.94,15.94,0,0,1,.39,19.57a15.24,15.24,0,0,1-.28-5.26A15.74,15.74,0,0,1,3.16,6.58,15.7,15.7,0,0,1,17.28.21a16.62,16.62,0,0,1,7.61,2.56,14.58,14.58,0,0,1,6.77,9.43,14.39,14.39,0,0,1,.19,5.15,8.25,8.25,0,0,1-3.67,6,6.16,6.16,0,0,1-5,.85A3.17,3.17,0,0,1,21.35,23Zm-.87-7c0-.89,0-1.78,0-2.67a.67.67,0,0,0-.09-.34,5.8,5.8,0,0,0-3.65-2.49,6,6,0,0,0-5.3,1.3,5.65,5.65,0,0,0-.95,7.31,6.26,6.26,0,0,0,6.43,2.25,5.65,5.65,0,0,0,3.42-2.3.81.81,0,0,0,.14-.42C20.48,17.82,20.48,16.94,20.48,16.06Z"/></svg>