<svg xmlns="http://www.w3.org/2000/svg" width="49.629" height="16.043" viewBox="0 0 49.629 16.043"><path d="M10.931,20.652a1.615,1.615,0,0,0-1.817-1.309h-6.5l-.048.314C7.029,20.8,10.689,23.22,12.337,27.8l-1.406-7.149Zm1.817,9.305L12.337,27.8A9.729,9.729,0,0,0,7.1,22.517l3.272,12.36h4.241L20.94,19.342H16.674L12.749,29.957ZM24.066,34.9l2.519-15.557H22.563L20.042,34.9ZM35.043,19.076c-3.974,0-6.76,2.109-6.785,5.137-.025,2.231,1.987,3.466,3.513,4.218,1.576.751,2.084,1.26,2.084,1.938,0,1.042-1.26,1.5-2.4,1.5a7.624,7.624,0,0,1-3.78-.8l-.534-.267-.558,3.489a11.72,11.72,0,0,0,4.483.825c4.217.025,6.956-2.084,7-5.306,0-1.77-1.09-3.1-3.393-4.218-1.4-.7-2.252-1.212-2.252-1.938,0-.654.726-1.334,2.3-1.334a6.684,6.684,0,0,1,3,.583l.364.193.556-3.368a10,10,0,0,0-3.611-.655Zm10.809.267a1.989,1.989,0,0,0-2.109,1.309L37.781,34.9H42c.68-1.913.85-2.327.85-2.327h5.137s.122.534.484,2.327H52.2L48.953,19.343h-3.1ZM43.984,29.376s.339-.9,1.6-4.338c-.025.025.339-.9.534-1.478l.29,1.334c.751,3.708.922,4.483.922,4.483H43.984Z" transform="translate(-2.571 -19.076)" fill="visa"/></svg>