<svg xmlns="http://www.w3.org/2000/svg" width="44.211" height="26.526" viewBox="0 0 44.211 26.526"><path d="M36.089,16.35a13.211,13.211,0,0,0-8.842,3.38,13.263,13.263,0,1,0,0,19.766A13.262,13.262,0,1,0,36.089,16.35ZM10.613,32.786l.766-4.815L9.629,32.786H8.644V27.971l-.875,4.815H6.455L7.55,26.439H9.52v3.94l1.423-3.94h2.079l-1.094,6.347H10.613Zm6.128-1.313a7.182,7.182,0,0,1-.219.985v.328H15.428v-.547a1.584,1.584,0,0,1-1.422.657,1.179,1.179,0,0,1-.875-.328,1.769,1.769,0,0,1-.328-1.094,1.711,1.711,0,0,1,.547-1.423,3.114,3.114,0,0,1,1.861-.547h.547v-.328c0-.291-.292-.438-.875-.438a6.141,6.141,0,0,0-1.423.219c.071-.291.145-.657.219-1.094a4.452,4.452,0,0,1,1.532-.328q1.86,0,1.861,1.532a5.208,5.208,0,0,1-.109.985q-.1.712-.219,1.423Zm3.94-2.627a3.367,3.367,0,0,0-.985-.109c-.438,0-.657.147-.657.438a.441.441,0,0,0,.109.328l.438.219a1.619,1.619,0,0,1,.985,1.423q0,1.752-2.079,1.751a6.488,6.488,0,0,1-1.422-.109c.071-.291.145-.693.219-1.2a5.949,5.949,0,0,0,1.2.219c.509,0,.766-.145.766-.438a.455.455,0,0,0-.109-.328,1.4,1.4,0,0,0-.547-.328,1.473,1.473,0,0,1-.985-1.422q0-1.749,1.97-1.751a5.07,5.07,0,0,1,1.313.109l-.22,1.2Zm2.845.109H22.76a4.144,4.144,0,0,1-.109.985,3.411,3.411,0,0,1-.055.438.863.863,0,0,1-.164.438v.438a.386.386,0,0,0,.438.438.974.974,0,0,0,.438-.109l-.219,1.2a3.309,3.309,0,0,1-.985.109A.967.967,0,0,1,21.009,31.8a5.143,5.143,0,0,1,.219-1.423l.547-3.5h1.313l-.109.766h.657l-.109,1.314Zm4.268,1.751H25.058a1.055,1.055,0,0,0,.219.766,1.336,1.336,0,0,0,.985.328,2.894,2.894,0,0,0,1.422-.438l-.219,1.313a3.871,3.871,0,0,1-1.423.219,2.031,2.031,0,0,1-2.3-2.3,3.268,3.268,0,0,1,.657-2.188,1.982,1.982,0,0,1,1.641-.875,1.93,1.93,0,0,1,1.423.547,1.792,1.792,0,0,1,.438,1.313,6.9,6.9,0,0,1-.109,1.314Zm2.189-.985a21.472,21.472,0,0,0-.547,3.064H28.013l.109-.328q.435-3.062.657-4.815h1.313l-.109.766a1.4,1.4,0,0,1,.657-.657.477.477,0,0,1,.657-.109,8.164,8.164,0,0,0-.547,1.532c-.293-.072-.548.109-.767.547Zm4.924,2.955a2.722,2.722,0,0,1-1.2.219,2.189,2.189,0,0,1-1.751-.766,2.676,2.676,0,0,1-.657-1.97,4.233,4.233,0,0,1,.875-2.736,2.511,2.511,0,0,1,2.188-1.094,5.245,5.245,0,0,1,1.532.328l-.219,1.313a2.729,2.729,0,0,0-1.2-.328,1.468,1.468,0,0,0-1.313.657,2.8,2.8,0,0,0-.438,1.751,1.509,1.509,0,0,0,.328,1.094,1.037,1.037,0,0,0,.875.438,2.722,2.722,0,0,0,1.2-.328l-.219,1.423Zm4.87-3.174a3.253,3.253,0,0,0-.055.547c-.073.366-.147.858-.219,1.478a7.64,7.64,0,0,1-.219,1.258H38.189v-.547a1.585,1.585,0,0,1-1.423.657,1.179,1.179,0,0,1-.875-.328,1.769,1.769,0,0,1-.328-1.094,1.711,1.711,0,0,1,.547-1.423A2.935,2.935,0,0,1,37.86,29.5h.547a.449.449,0,0,0,.109-.328c0-.291-.292-.438-.875-.438a6.141,6.141,0,0,0-1.423.219,3.544,3.544,0,0,1,.219-1.094,4.452,4.452,0,0,1,1.532-.328q1.86,0,1.861,1.532a3.175,3.175,0,0,1-.054.438Zm2.134.219a22.109,22.109,0,0,0-.547,3.064H39.94l.109-.328q.433-2.392.657-4.815H42.02a2.478,2.478,0,0,1-.109.766,1.4,1.4,0,0,1,.657-.657.783.783,0,0,1,.657-.109,2.916,2.916,0,0,0-.547,1.532c-.293-.072-.547.109-.767.547Zm3.72,3.064.109-.438a1.457,1.457,0,0,1-1.2.547,1.282,1.282,0,0,1-1.2-.547,2.609,2.609,0,0,1-.547-1.532,3.368,3.368,0,0,1,.766-2.3,1.715,1.715,0,0,1,1.532-.875A1.892,1.892,0,0,1,46.4,28.3l.219-1.861h1.423l-1.094,6.347H45.631ZM14.115,31.254c0,.366.145.547.438.547a.741.741,0,0,0,.657-.328,1.338,1.338,0,0,0,.328-.985h-.329c-.73,0-1.094.257-1.094.766Zm12.365-2.407a.31.31,0,0,1-.219-.109h-.219q-.657,0-.875.875H26.7v-.328l-.109-.219a.33.33,0,0,0-.11-.219Zm10.4,2.407c0,.366.145.547.438.547a.741.741,0,0,0,.657-.328,1.336,1.336,0,0,0,.328-.985h-.328c-.73,0-1.094.257-1.094.766ZM45.3,28.847a.923.923,0,0,0-.766.547,2.319,2.319,0,0,0-.219,1.2q0,.985.657.985a.948.948,0,0,0,.766-.438,2.17,2.17,0,0,0,.328-1.313c0-.656-.258-.985-.767-.985Z" transform="translate(-5.141 -16.35)" fill="inherit"/></svg>