<svg xmlns="http://www.w3.org/2000/svg" width="50.927" height="21.143" viewBox="0 0 50.927 21.143"><path d="M9.31,13.225a3.117,3.117,0,0,1-2.508,1.2A3.613,3.613,0,0,1,7.7,11.8a3.74,3.74,0,0,1,2.487-1.3A3.848,3.848,0,0,1,9.31,13.225Zm.864,1.388c-1.382-.081-2.568.8-3.221.8s-1.672-.755-2.767-.734a4.078,4.078,0,0,0-3.47,2.133C-.778,19.4.327,23.244,1.768,25.355c.707,1.046,1.553,2.192,2.668,2.152,1.053-.04,1.471-.694,2.744-.694s1.651.694,2.767.675c1.152-.021,1.878-1.046,2.585-2.092a9.183,9.183,0,0,0,1.154-2.4,3.784,3.784,0,0,1-2.25-3.449A3.867,3.867,0,0,1,13.258,16.3a3.926,3.926,0,0,0-3.084-1.691Zm7.99-2.916V27.378h2.409V22.017H23.9a4.95,4.95,0,0,0,5.182-5.17,4.891,4.891,0,0,0-5.1-5.151H18.162Zm2.409,2.052h2.776c2.088,0,3.281,1.125,3.281,3.107s-1.193,3.12-3.292,3.12H20.571V13.747ZM33.484,27.5a3.971,3.971,0,0,0,3.553-2h.049v1.882h2.228V19.572c0-2.262-1.791-3.722-4.546-3.722-2.557,0-4.446,1.479-4.516,3.51h2.169a2.113,2.113,0,0,1,2.277-1.6c1.473,0,2.3.694,2.3,1.972V20.6l-3.005.183c-2.795.17-4.308,1.326-4.308,3.338,0,2.031,1.562,3.379,3.8,3.379Zm.647-1.859c-1.284,0-2.1-.624-2.1-1.579,0-.987.787-1.56,2.29-1.651l2.674-.17v.885a2.625,2.625,0,0,1-2.865,2.515Zm8.158,6.006c2.347,0,3.451-.906,4.414-3.652L50.931,16H48.484l-2.835,9.263H45.6L42.765,16H40.248l4.077,11.417-.219.694a1.916,1.916,0,0,1-2.029,1.628c-.189,0-.556-.021-.707-.04v1.882a6.568,6.568,0,0,0,.917.059Z" transform="translate(-0.004 -10.5)" fill="inherit"/></svg>