<svg xmlns="http://www.w3.org/2000/svg" width="58.033" height="21.765" viewBox="0 0 58.033 21.765"><path d="M58.033,16.837,50.455,33.763H48.114l2.812-5.924-4.984-11h2.466l3.6,8.439h.048l3.5-8.439ZM26.557,22.074v6.853H24.18V12h6.3a6,6,0,0,1,4.079,1.465,4.612,4.612,0,0,1,0,7.165,5.976,5.976,0,0,1-4.079,1.441H26.557Zm0-7.989v5.91h3.985a3.309,3.309,0,0,0,2.353-.875,2.718,2.718,0,0,0,0-4.137,3.247,3.247,0,0,0-2.353-.9Zm14.487,2.752A4.973,4.973,0,0,1,44.63,18.1a4.58,4.58,0,0,1,1.313,3.463v7H43.982V26.981h-.089a3.88,3.88,0,0,1-3.385,1.947,4.31,4.31,0,0,1-3.023-1.112,3.61,3.61,0,0,1-1.214-2.781,3.423,3.423,0,0,1,1.282-2.8,5.277,5.277,0,0,1,3.422-1.042,5.87,5.87,0,0,1,3.006.694V21.4a2.466,2.466,0,0,0-.846-1.886,2.841,2.841,0,0,0-1.978-.779,3.1,3.1,0,0,0-2.718,1.506l-1.806-1.18A4.96,4.96,0,0,1,41.039,16.837Zm-2.653,8.246a1.724,1.724,0,0,0,.682,1.39,2.45,2.45,0,0,0,1.594.556,3.221,3.221,0,0,0,2.3-1,3.168,3.168,0,0,0,1.02-2.338,4.065,4.065,0,0,0-2.674-.8,3.368,3.368,0,0,0-2.084.629,1.88,1.88,0,0,0-.841,1.555ZM9.868,12a9.59,9.59,0,0,1,6.6,2.52l-2.815,2.761a5.417,5.417,0,0,0-3.787-1.451,5.89,5.89,0,0,0-5.54,3.99,5.685,5.685,0,0,0,0,3.7,5.89,5.89,0,0,0,5.54,3.99,6.025,6.025,0,0,0,3.361-.921A4.485,4.485,0,0,0,15.2,23.651H9.868V19.927h9.307a11.4,11.4,0,0,1,.169,1.966,9.369,9.369,0,0,1-2.936,7.116,9.549,9.549,0,0,1-6.541,2.336,9.89,9.89,0,0,1-8.816-5.329,9.5,9.5,0,0,1,0-8.686A9.89,9.89,0,0,1,9.865,12Z" transform="translate(-0.001 -11.999)" fill="inherit"/></svg>