<svg xmlns="http://www.w3.org/2000/svg" width="61.527" height="16.396" viewBox="0 0 61.527 16.396"><path d="M36.464,24.379h-2.3a.665.665,0,0,0-.55.292l-3.178,4.68-1.346-4.5a.666.666,0,0,0-.637-.474H26.184a.4.4,0,0,0-.378.527l2.536,7.445-2.385,3.366a.4.4,0,0,0,.326.629h2.3a.669.669,0,0,0,.547-.285l7.66-11.056a.4.4,0,0,0-.328-.626Zm-15.4,4.461a2.555,2.555,0,0,1-2.587,2.188,1.776,1.776,0,0,1-1.9-2.229,2.564,2.564,0,0,1,2.568-2.205,1.93,1.93,0,0,1,1.528.624,1.973,1.973,0,0,1,.389,1.621Zm3.194-4.461H21.967a.4.4,0,0,0-.394.337l-.1.64-.16-.232a3.265,3.265,0,0,0-2.708-.961,5.27,5.27,0,0,0-5.115,4.61,4.324,4.324,0,0,0,.853,3.521,3.585,3.585,0,0,0,2.886,1.165A4.388,4.388,0,0,0,20.4,32.148l-.1.637a.4.4,0,0,0,.394.461h2.064a.664.664,0,0,0,.657-.561l1.239-7.845a.4.4,0,0,0-.394-.46Zm-13.753.055c-.261,1.718-1.573,1.718-2.843,1.718H6.941l.506-3.207a.4.4,0,0,1,.394-.337h.332c.864,0,1.68,0,2.1.492a1.6,1.6,0,0,1,.233,1.334Zm-.552-4.482H5.168a.665.665,0,0,0-.657.562L2.576,32.785a.4.4,0,0,0,.394.461H5.255a.665.665,0,0,0,.656-.561l.522-3.311a.665.665,0,0,1,.656-.562H8.6c3.153,0,4.972-1.525,5.447-4.549a3.684,3.684,0,0,0-.61-3.088,4.436,4.436,0,0,0-3.487-1.223Zm51.14.337-1.964,12.5a.4.4,0,0,0,.394.461H61.5a.664.664,0,0,0,.656-.562l1.937-12.272a.4.4,0,0,0-.394-.461h-2.21a.4.4,0,0,0-.394.337ZM55.2,28.84a2.555,2.555,0,0,1-2.587,2.188,1.776,1.776,0,0,1-1.9-2.229,2.564,2.564,0,0,1,2.568-2.205,1.93,1.93,0,0,1,1.528.624A1.973,1.973,0,0,1,55.2,28.84Zm3.194-4.461H56.1a.4.4,0,0,0-.394.337l-.1.641-.161-.232a3.262,3.262,0,0,0-2.707-.961,5.27,5.27,0,0,0-5.115,4.61,4.324,4.324,0,0,0,.853,3.521,3.585,3.585,0,0,0,2.886,1.165,4.388,4.388,0,0,0,3.173-1.311l-.1.637a.4.4,0,0,0,.394.461h2.064a.664.664,0,0,0,.657-.561l1.239-7.845a.4.4,0,0,0-.394-.461Zm-13.753.055c-.261,1.718-1.573,1.718-2.843,1.718h-.722l.506-3.207a.4.4,0,0,1,.394-.337h.332c.864,0,1.68,0,2.1.492a1.6,1.6,0,0,1,.232,1.334Zm-.552-4.482H39.3a.665.665,0,0,0-.657.562L36.71,32.785a.4.4,0,0,0,.394.461H39.56a.465.465,0,0,0,.46-.392l.549-3.479a.665.665,0,0,1,.656-.562h1.514c3.153,0,4.972-1.525,5.447-4.549a3.684,3.684,0,0,0-.61-3.088,4.436,4.436,0,0,0-3.487-1.223Z" transform="translate(-2.571 -19.952)" fill="paypal"/></svg>