<svg width='32' height='32' xmlns="http://www.w3.org/2000/svg" viewBox="0 0 32 32">
<path d="M16,7.83A8.19,8.19,0,1,0,24.21,16,8.2,8.2,0,0,0,16,7.83Zm0,13.52A5.33,5.33,0,1,1,21.34,16h0A5.35,5.35,0,0,1,16,21.35ZM26.46,7.49a1.92,1.92,0,1,1-1.92-1.91,1.92,1.92,0,0,1,1.92,1.91Zm5.43,1.95a9.47,9.47,0,0,0-2.59-6.7A9.55,9.55,0,0,0,22.6.16C20,0,12,0,9.4.16A9.55,9.55,0,0,0,2.7,2.74,9.46,9.46,0,0,0,.11,9.43C0,12.07,0,20,.11,22.61a9.47,9.47,0,0,0,2.59,6.7,9.55,9.55,0,0,0,6.7,2.58C12,32,20,32,22.6,31.89a9.5,9.5,0,0,0,6.7-2.58,9.51,9.51,0,0,0,2.59-6.7C32,20,32,12.08,31.89,9.44Zm-3.41,16a5.4,5.4,0,0,1-3.05,3c-2.11.84-7.11.65-9.43.65s-7.33.18-9.43-.65a5.37,5.37,0,0,1-3.05-3c-.84-2.1-.64-7.1-.64-9.42S2.69,8.7,3.52,6.6a5.4,5.4,0,0,1,3.05-3c2.1-.83,7.1-.64,9.43-.64s7.33-.19,9.43.64a5.43,5.43,0,0,1,3.05,3c.83,2.11.64,7.1.64,9.42S29.31,23.34,28.48,25.44Z"/>
</svg>