<svg xmlns="http://www.w3.org/2000/svg" viewBox="0 0 24 23.16"><defs><style>.cls-1{fill:#f2aa4c;}</style></defs><title>tick_icon</title><g id="Layer_2" data-name="Layer 2"><g id="Layer_1-2" data-name="Layer 1"><path class="cls-1" d="M8.91,16.14c.15-.23.29-.44.44-.65l6.33-9.34L19.44.6A1.3,1.3,0,0,1,21.31.25l2.12,1.44a1.29,1.29,0,0,1,.33,1.82L20.93,7.7l-4.57,6.73-4,5.93c-.42.63-.84,1.26-1.28,1.88a2,2,0,0,1-1.2.87,1.92,1.92,0,0,1-1.27-.17,2.71,2.71,0,0,1-.77-.53L.41,15a1.31,1.31,0,0,1,0-1.89l1.8-1.79a1.29,1.29,0,0,1,1.89,0L8.82,16Z"/></g></g></svg>