<svg width='32' height='32' xmlns="http://www.w3.org/2000/svg" viewBox="0 0 32 32">
<path d="M23,32.05H9a9,9,0,0,1-9-9v-14a9,9,0,0,1,9-9H23a9,9,0,0,1,9,9v14A9,9,0,0,1,23,32.05ZM9,3.05a6,6,0,0,0-6,6v14a6,6,0,0,0,6,6H23a6,6,0,0,0,6-6v-14a6,6,0,0,0-6-6Z"/>
<path d="M25.1,11.79a5.06,5.06,0,0,1,0,.55,12.11,12.11,0,0,1-12,12.19h-.16a12.06,12.06,0,0,1-6.58-1.92,7.11,7.11,0,0,0,1,.05,8.54,8.54,0,0,0,5.32-1.83,4.27,4.27,0,0,1-4-3,5.31,5.31,0,0,0,.81.07,4.26,4.26,0,0,0,1.12-.15,4.26,4.26,0,0,1-3.43-4.2v-.05a4.33,4.33,0,0,0,1.93.54A4.3,4.3,0,0,1,7.81,8.34a12.14,12.14,0,0,0,8.83,4.48,4.59,4.59,0,0,1-.1-1A4.29,4.29,0,0,1,24,8.91a8.55,8.55,0,0,0,2.72-1,4.35,4.35,0,0,1-1.88,2.36,8.88,8.88,0,0,0,2.46-.66,9.4,9.4,0,0,1-2.15,2.21Z"/>
</svg>