<svg
  width='32'
  height='32'
  xmlns="http://www.w3.org/2000/svg"
  viewBox="0 0 32 32"
>
<path
    d="M23,32H9a9,9,0,0,1-9-9V9A9,9,0,0,1,9,0H23a9,9,0,0,1,9,9V23A9,9,0,0,1,23,32ZM9,3A6,6,0,0,0,3,9V23a6,6,0,0,0,6,6H23a6,6,0,0,0,6-6V9a6,6,0,0,0-6-6Z"
  />
<path
    d="M26.07,11a2.58,2.58,0,0,0-1.81-1.82c-1.6-.43-8-.43-8-.43s-6.42,0-8,.43A2.58,2.58,0,0,0,6.41,11,26.77,26.77,0,0,0,6,16a26.8,26.8,0,0,0,.43,5,2.55,2.55,0,0,0,1.81,1.8c1.6.43,8,.43,8,.43s6.42,0,8-.43A2.55,2.55,0,0,0,26.07,21a26.8,26.8,0,0,0,.43-5A26.77,26.77,0,0,0,26.07,11Zm-11.93,8V13l5.36,3Z"
  />
</svg>
